<svg width="16" height="16" viewBox="0 0 16 16" fill="none" xmlns="http://www.w3.org/2000/svg">
<path d="M8 0.201843C10.1736 0.201843 10.4448 0.20958 11.2976 0.248266C12.1496 0.286951 12.7296 0.416161 13.24 0.608041C13.768 0.804563 14.2128 1.07072 14.6576 1.50013C15.0644 1.8869 15.3792 2.35476 15.58 2.87114C15.7776 3.36399 15.912 3.9257 15.952 4.7497C15.9896 5.57448 16 5.83677 16 7.93893C16 10.0411 15.992 10.3034 15.952 11.1282C15.912 11.9522 15.7776 12.5131 15.58 13.0067C15.3797 13.5234 15.0649 13.9914 14.6576 14.3777C14.2576 14.771 13.7738 15.0754 13.24 15.2698C12.7304 15.4609 12.1496 15.5909 11.2976 15.6296C10.4448 15.666 10.1736 15.676 8 15.676C5.8264 15.676 5.5552 15.6683 4.7024 15.6296C3.8504 15.5909 3.2704 15.4609 2.76 15.2698C2.22586 15.076 1.74202 14.7715 1.3424 14.3777C0.935525 13.991 0.620745 13.5232 0.42 13.0067C0.2216 12.5139 0.088 11.9522 0.048 11.1282C0.0104 10.3034 0 10.0411 0 7.93893C0 5.83677 0.00799995 5.57448 0.048 4.7497C0.088 3.92493 0.2216 3.36477 0.42 2.87114C0.620189 2.35444 0.935043 1.88646 1.3424 1.50013C1.74214 1.10649 2.22594 0.802032 2.76 0.608041C3.2704 0.416161 3.8496 0.286951 4.7024 0.248266C5.5552 0.211901 5.8264 0.201843 8 0.201843ZM8 4.07039C6.93913 4.07039 5.92172 4.47797 5.17157 5.20346C4.42143 5.92895 4 6.91293 4 7.93893C4 8.96493 4.42143 9.94891 5.17157 10.6744C5.92172 11.3999 6.93913 11.8075 8 11.8075C9.06087 11.8075 10.0783 11.3999 10.8284 10.6744C11.5786 9.94891 12 8.96493 12 7.93893C12 6.91293 11.5786 5.92895 10.8284 5.20346C10.0783 4.47797 9.06087 4.07039 8 4.07039ZM13.2 3.87696C13.2 3.62046 13.0946 3.37447 12.9071 3.19309C12.7196 3.01172 12.4652 2.90982 12.2 2.90982C11.9348 2.90982 11.6804 3.01172 11.4929 3.19309C11.3054 3.37447 11.2 3.62046 11.2 3.87696C11.2 4.13346 11.3054 4.37946 11.4929 4.56083C11.6804 4.7422 11.9348 4.8441 12.2 4.8441C12.4652 4.8441 12.7196 4.7422 12.9071 4.56083C13.0946 4.37946 13.2 4.13346 13.2 3.87696ZM8 5.61781C8.63652 5.61781 9.24697 5.86235 9.69706 6.29765C10.1471 6.73294 10.4 7.32333 10.4 7.93893C10.4 8.55453 10.1471 9.14492 9.69706 9.58022C9.24697 10.0155 8.63652 10.2601 8 10.2601C7.36348 10.2601 6.75303 10.0155 6.30294 9.58022C5.85286 9.14492 5.6 8.55453 5.6 7.93893C5.6 7.32333 5.85286 6.73294 6.30294 6.29765C6.75303 5.86235 7.36348 5.61781 8 5.61781Z" fill="#1F1E25"/>
</svg>
