<svg width="10" height="16" viewBox="0 0 10 16" fill="none" xmlns="http://www.w3.org/2000/svg">
<path d="M8.8373 0.0985718H1.1627C0.523313 0.0985718 0 0.568545 0 1.14374V14.5271C0 15.1023 0.523313 15.5728 1.1627 15.5728H8.8373C9.47669 15.5728 10 15.1032 10 14.5276V1.14374C10 0.568545 9.47669 0.0985718 8.8373 0.0985718ZM3.77238 0.851943H6.22762C6.30533 0.851943 6.36829 0.908535 6.36829 0.978831C6.36829 1.04869 6.30533 1.10528 6.22762 1.10528H3.77238C3.69467 1.10528 3.63171 1.04869 3.63171 0.978831C3.63171 0.908535 3.69467 0.851943 3.77238 0.851943ZM5 15.0502C4.67883 15.0502 4.41865 14.8163 4.41865 14.5271C4.41865 14.238 4.67883 14.0046 5 14.0046C5.32117 14.0046 5.58135 14.238 5.58135 14.5271C5.58135 14.8163 5.32117 15.0502 5 15.0502ZM9.19093 13.6385H0.809069V1.75608H9.19093V13.6385Z" fill="#1F1E25"/>
</svg>
