<svg width="16" height="13" viewBox="0 0 16 13" fill="none" xmlns="http://www.w3.org/2000/svg">
<path d="M15.9992 1.62863C15.4 1.88481 14.7645 2.05306 14.1138 2.1278C14.7996 1.73137 15.313 1.10748 15.5581 0.372377C14.9144 0.742578 14.2088 1.00202 13.4733 1.14237C12.9793 0.631502 12.3245 0.292695 11.6106 0.178617C10.8968 0.0645385 10.164 0.18158 9.52611 0.511546C8.88822 0.841512 8.38099 1.36591 8.08329 2.00323C7.78559 2.64054 7.71409 3.35506 7.87991 4.0357C6.57465 3.97247 5.29775 3.64465 4.13209 3.07353C2.96644 2.5024 1.93809 1.70074 1.11381 0.720579C0.822049 1.20491 0.668725 1.75549 0.669545 2.31593C0.669545 3.41592 1.24882 4.38769 2.12951 4.95665C1.60833 4.94079 1.09861 4.80476 0.642857 4.5599V4.59935C0.643014 5.33193 0.905313 6.04193 1.38528 6.60895C1.86525 7.17596 2.53335 7.56511 3.27629 7.7104C2.79248 7.83712 2.28517 7.85579 1.79278 7.76502C2.00225 8.3956 2.41052 8.94709 2.96043 9.34225C3.51034 9.73742 4.17436 9.95649 4.8595 9.96878C4.17856 10.4856 3.39888 10.8677 2.56506 11.0932C1.73123 11.3186 0.859598 11.383 0 11.2827C1.50055 12.2153 3.24733 12.7105 5.0314 12.7089C11.0699 12.7089 14.3721 7.87426 14.3721 3.68143C14.3721 3.54488 14.3681 3.40681 14.3619 3.27178C15.0046 2.82281 15.5593 2.26664 16 1.62939L15.9992 1.62863Z" fill="#1F1E25"/>
</svg>
