<svg width="16" height="13" viewBox="0 0 16 13" fill="none" xmlns="http://www.w3.org/2000/svg">
<path d="M15.6344 2.09903C16 3.49932 16 6.42249 16 6.42249C16 6.42249 16 9.34566 15.6344 10.746C15.4312 11.52 14.8368 12.129 14.084 12.3348C12.7168 12.7089 8 12.7089 8 12.7089C8 12.7089 3.2856 12.7089 1.916 12.3348C1.16 12.1258 0.5664 11.5176 0.3656 10.746C2.38419e-08 9.34566 0 6.42249 0 6.42249C0 6.42249 2.38419e-08 3.49932 0.3656 2.09903C0.5688 1.32502 1.1632 0.716027 1.916 0.510148C3.2856 0.136108 8 0.136108 8 0.136108C8 0.136108 12.7168 0.136108 14.084 0.510148C14.84 0.719171 15.4336 1.32738 15.6344 2.09903ZM6.4 9.17279L11.2 6.42249L6.4 3.6722V9.17279Z" fill="#1F1E25"/>
</svg>
